<?xml version="1.0" encoding="UTF-8" standalone="no"?>
<svg width="105px" height="37px" viewBox="0 0 105 37" version="1.1" xmlns="http://www.w3.org/2000/svg" xmlns:xlink="http://www.w3.org/1999/xlink">
    <!-- Generator: Sketch 3.6.1 (26313) - http://www.bohemiancoding.com/sketch -->
    <title>Group 3</title>
    <desc>Created with Sketch.</desc>
    <defs></defs>
    <g id="LANDING" stroke="none" stroke-width="1" fill="none" fill-rule="evenodd">
        <g id="Mobile-Portrait-Copy-7" transform="translate(-63.000000, -40.000000)" fill="#FFFFFF">
            <g id="Group-3" transform="translate(63.000000, 40.000000)">
                <path d="M10.7794677,14.7204301 C10.0190526,15.6947595 8.37049787,16.311828 6.78707224,16.311828 C2.71780196,16.311828 0,13.7010623 0,9.5483871 C0,6.10110606 2.26424182,3.1827957 6.78707224,3.1827957 C8.3159283,3.1827957 9.74699556,3.76265799 10.3802281,4.37634409 L9.18250951,6.76344086 C8.53381115,6.26497159 7.82717473,5.9016176 6.78707224,5.96774194 C4.67479336,5.9016176 3.07962195,7.2438108 3.19391635,9.5483871 C3.07962195,11.9955151 4.63841364,13.5914228 6.78707224,13.5268817 C7.82717473,13.5914228 8.82366258,13.3020854 9.58174905,12.7311828 L10.7794677,14.7204301" id="Fill-48"></path>
                <path d="M13.5741445,3.1827957 L21.1596958,3.1827957 L21.1596958,5.96774194 L16.3688213,5.96774194 L16.3688213,7.95698925 L20.3612167,7.95698925 L20.3612167,10.7419355 L16.3688213,10.7419355 L16.3688213,13.1290323 L21.1596958,13.1290323 L21.1596958,15.9139785 L13.5741445,15.9139785 L13.5741445,3.1827957" id="Fill-49"></path>
                <path d="M24.3536122,3.1827957 L27.148289,3.1827957 L31.539924,8.35483871 L35.1330798,3.1827957 L37.9277567,3.1827957 L37.9277567,15.9139785 L35.1330798,15.9139785 L35.1330798,7.95698925 L31.539924,12.7311828 L30.7414449,12.7311828 L27.148289,7.95698925 L27.148289,15.9139785 L24.3536122,15.9139785 L24.3536122,3.1827957" id="Fill-50"></path>
                <path d="M41.5209125,3.1827957 L49.1064639,3.1827957 L49.1064639,5.96774194 L44.3155894,5.96774194 L44.3155894,7.95698925 L48.3079848,7.95698925 L48.3079848,10.7419355 L44.3155894,10.7419355 L44.3155894,13.1290323 L49.1064639,13.1290323 L49.1064639,15.9139785 L41.5209125,15.9139785 L41.5209125,3.1827957" id="Fill-51"></path>
                <path d="M57.0912548,0 C57.0048971,0.662431292 57.3300846,0.870960409 58.2889734,0.795698925 C58.8109688,0.870960409 59.1716313,0.74827388 59.0874525,0 L61.8821293,0 C61.9170022,1.68836416 60.381723,2.78494624 58.2889734,2.78494624 C55.6860155,2.78494624 54.2965779,1.67127161 54.2965779,0 L57.0912548,0 L57.0912548,0 Z M52.3003802,15.9139785 L52.3003802,3.1827957 L55.095057,3.1827957 L55.095057,11.1397849 L61.0836502,3.1827957 L63.4790875,3.1827957 L63.4790875,15.9139785 L60.6844106,15.9139785 L60.6844106,7.95698925 L54.6958175,15.9139785 L52.3003802,15.9139785 L52.3003802,15.9139785 Z" id="Fill-52"></path>
                <path d="M74.6577947,10.7419355 L69.8669202,10.7419355 L69.8669202,15.9139785 L67.0722433,15.9139785 L67.0722433,3.1827957 L69.8669202,3.1827957 L69.8669202,7.95698925 L74.6577947,7.95698925 L74.6577947,3.1827957 L77.4524715,3.1827957 L77.4524715,15.9139785 L74.6577947,15.9139785 L74.6577947,10.7419355" id="Fill-53"></path>
                <path d="M85.4372624,10.344086 L88.2319392,10.344086 L87.0342205,6.76344086 L85.4372624,10.344086 L85.4372624,10.344086 Z M85.4372624,3.1827957 L88.2319392,3.1827957 L93.4220532,15.9139785 L90.2281369,15.9139785 L89.4296578,13.1290323 L84.2395437,13.1290323 L83.0418251,15.9139785 L80.2471483,15.9139785 L85.4372624,3.1827957 L85.4372624,3.1827957 Z" id="Fill-54"></path>
                <path d="M101.806084,9.15053763 L101.806084,5.96774194 C101.628915,6.003447 100.969973,5.96774194 100.608365,5.96774194 C99.8304224,5.96774194 99.0114068,6.57278748 99.0114068,7.55913978 C99.0114068,8.52841576 99.6346046,9.00810549 100.209125,9.15053763 L101.806084,9.15053763 L101.806084,9.15053763 Z M102.205323,11.9354839 L100.608365,11.9354839 L98.2129278,15.9139785 L95.0190114,15.9139785 L98.2129278,11.1397849 C96.9488484,10.5793224 96.0473216,9.47615847 96.21673,7.55913978 C96.0473216,5.36978367 97.5919937,3.1827957 101.406844,3.1827957 C102.389705,3.1827957 104.247323,3.25541901 105,3.1827957 L105,15.9139785 L102.205323,15.9139785 L102.205323,11.9354839 L102.205323,11.9354839 Z" id="Fill-55"></path>
                <path d="M3.19391635,21.8817204 L5.98859316,21.8817204 L5.98859316,27.4516129 L10.3802281,21.8817204 L13.973384,21.8817204 L9.18250951,27.8494624 L14.3726236,34.6129032 L10.7794677,34.6129032 L5.98859316,28.6451613 L5.98859316,34.6129032 L3.19391635,34.6129032 L3.19391635,21.8817204" id="Fill-56"></path>
                <path d="M21.5589354,31.827957 C23.9240899,31.827957 25.1520913,30.1531635 25.1520913,28.2473118 C25.1520913,25.766948 23.5680744,24.2688172 21.5589354,24.2688172 C19.4946663,24.2688172 17.9657795,25.766948 17.9657795,28.2473118 C17.9657795,30.1877956 19.5657141,31.827957 21.5589354,31.827957 L21.5589354,31.827957 Z M21.5589354,21.483871 C25.4445148,21.483871 28.3460076,24.0062188 28.3460076,28.2473118 C28.3460076,31.8926621 25.4445148,34.6129032 21.5589354,34.6129032 C17.6733559,34.6129032 14.7718631,32.0937217 14.7718631,28.2473118 C14.7718631,24.3695509 17.4905941,21.483871 21.5589354,21.483871 L21.5589354,21.483871 Z" id="Fill-57"></path>
                <path d="M31.1406844,21.8817204 L33.9353612,21.8817204 L38.3269962,27.0537634 L41.9201521,21.8817204 L44.7148289,21.8817204 L44.7148289,34.6129032 L41.9201521,34.6129032 L41.9201521,26.655914 L38.3269962,31.4301075 L37.5285171,31.4301075 L33.9353612,26.655914 L33.9353612,34.6129032 L31.1406844,34.6129032 L31.1406844,21.8817204" id="Fill-58"></path>
                <path d="M52.3003802,29.0430108 L55.095057,29.0430108 L53.8973384,25.4623656 L52.3003802,29.0430108 L52.3003802,29.0430108 Z M52.3003802,21.8817204 L55.095057,21.8817204 L60.2851711,34.6129032 L57.0912548,34.6129032 L56.2927757,31.827957 L51.1026616,31.827957 L49.904943,34.6129032 L47.1102662,34.6129032 L52.3003802,21.8817204 L52.3003802,21.8817204 Z" id="Fill-59"></path>
                <path d="M70.2661597,29.4408602 L65.4752852,29.4408602 L65.4752852,34.6129032 L62.6806084,34.6129032 L62.6806084,21.8817204 L65.4752852,21.8817204 L65.4752852,26.655914 L70.2661597,26.655914 L70.2661597,21.8817204 L73.0608365,21.8817204 L73.0608365,34.6129032 L70.2661597,34.6129032 L70.2661597,29.4408602" id="Fill-60"></path>
                <path d="M80.2471483,32.2258065 L84.6387833,32.2258065 L84.6387833,24.6666667 L81.8441065,24.6666667 L81.8441065,27.0537634 C81.4802198,29.1837539 80.7104435,31.6409074 80.2471483,32.2258065 L80.2471483,32.2258065 Z M75.4562738,31.827957 L76.6539924,31.827957 C77.3614169,31.3581602 78.5267025,28.6857309 78.6501901,24.2688172 L78.6501901,21.8817204 L87.4334601,21.8817204 L87.4334601,31.827957 L89.0304183,31.827957 L89.0304183,37 L86.2357414,37 L86.2357414,34.6129032 L78.2509506,34.6129032 L78.2509506,37 L75.4562738,37 L75.4562738,31.827957 L75.4562738,31.827957 Z" id="Fill-61"></path>
                <path d="M95.8174905,29.0430108 L98.6121673,29.0430108 L97.4144487,25.4623656 L95.8174905,29.0430108 L95.8174905,29.0430108 Z M95.8174905,21.8817204 L98.6121673,21.8817204 L103.802281,34.6129032 L100.608365,34.6129032 L99.8098859,31.827957 L94.6197719,31.827957 L93.4220532,34.6129032 L90.6273764,34.6129032 L95.8174905,21.8817204 L95.8174905,21.8817204 Z" id="Fill-62"></path>
            </g>
        </g>
    </g>
</svg>