<?xml version="1.0" encoding="UTF-8" standalone="no"?>
<svg width="166px" height="115px" viewBox="0 0 166 115" version="1.1" xmlns="http://www.w3.org/2000/svg" xmlns:xlink="http://www.w3.org/1999/xlink">
    <!-- Generator: Sketch 3.7 (28169) - http://www.bohemiancoding.com/sketch -->
    <title>ROSN_LOGO_SIGN</title>
    <desc>Created with Sketch.</desc>
    <defs></defs>
    <g id="LANDING" stroke="none" stroke-width="1" fill="none" fill-rule="evenodd">
        <g id="Logo" transform="translate(-832.000000, -430.000000)">
            <g id="ROSN_LOGO_SIGN" transform="translate(832.000000, 430.000000)">
                <g id="ROSN_LOGO" transform="translate(52.000000, 0.000000)">
                    <polyline id="Path-5125" fill="#FFFFFF" points="22 0 41 0 41 8 48 8 48 14.9951783 55 14.9951783 55 22 63 22 63 43.9968863 48 59.0030509 48 84 15 84 15 59.0030509 2.05091019e-05 44 0 22 8 22 8 15 15 15 15 8 22 8"></polyline>
                    <path d="M28,41 L35,41 L35,79 L28,79 L28,41 Z M36,48 L43,48 L43,79 L36,79 L36,48 Z M20,48 L27,48 L27,79 L20,79 L20,48 Z" id="Combined-Shape" fill="#FBCD20"></path>
                    <path d="M28,6 L35,6 L35,40 L28,40 L28,6 Z M36,13 L43,13 L43,47 L36,47 L36,13 Z M20,13 L27,13 L27,47 L20,47 L20,13 Z M44,19 L51,19 L51,49 L44,55.9992073 L44,19 Z M52,27 L59,27 L59,41 L52,48 L52,27 Z M19,55.9992073 L12,49 L12,19 L19,19 L19,55.9992073 Z M11,48 L4,41 L4,27 L11,27 L11,48 Z" id="Combined-Shape" fill="#000000"></path>
                </g>
                <g id="Group" transform="translate(0.000000, 99.000000)" fill="#FFFFFF">
                    <path d="M36.8372483,14.8127749 C36.0610738,15.6042583 34.616443,16 32.5053691,16 L25.5791946,16 C23.4832215,16 22.0325503,15.6215975 21.2241611,14.854593 C20.4077181,14.0916683 20,12.9381016 20,11.3898132 L20,4.60406706 C20,3.06087843 20.4077181,1.91241155 21.2241611,1.14540702 C22.0325503,0.38248231 23.4832215,0 25.5791946,0 L32.5053691,0 C34.616443,0 36.0610738,0.391661886 36.8372483,1.18416523 C37.616443,1.97972844 38,3.11799579 38,4.60406706 L38,11.3898132 C38,12.886084 37.616443,14.0202716 36.8372483,14.8127749 M33.2624161,6.17683432 C33.2624161,5.3017148 33.0852349,4.65098489 32.7238255,4.25014343 C32.3634228,3.84624211 31.5610738,3.64225155 30.3157718,3.64225155 L27.6630872,3.64225155 C26.5033557,3.64225155 25.7342282,3.86664117 25.3496644,4.30420093 C24.9600671,4.74278065 24.7667785,5.36903168 24.7667785,6.17683432 L24.7667785,9.81806591 C24.7667785,10.6330082 24.9600671,11.2551794 25.3496644,11.7008988 C25.7342282,12.1374386 26.5033557,12.3628482 27.6630872,12.3628482 L30.3157718,12.3628482 C31.5610738,12.3628482 32.352349,12.1588577 32.697651,11.7569962 C33.0369128,11.3469752 33.2251678,10.7166444 33.2624161,9.8486645 L33.2624161,6.17683432" id="Fill-13"></path>
                    <path d="M56.8329604,14.8127749 C56.0566122,15.6042583 54.612665,16 52.5081674,16 L45.5754084,16 C43.482994,16 42.0319982,15.6215975 41.2153726,14.854593 C40.4007608,14.0916683 40,12.9381016 40,11.3898132 L40,4.60406706 C40,3.06087843 40.4007608,1.91241155 41.2153726,1.14540702 C42.0319982,0.38248231 43.482994,0 45.5754084,0 L52.5081674,0 C54.612665,0 56.0566122,0.391661886 56.8329604,1.18416523 C57.6123294,1.97972844 58,3.11799579 58,4.60406706 L58,6.17683432 L53.261356,6.17683432 C53.261356,5.3017148 53.0770866,4.65098489 52.7186171,4.25014343 C52.3601477,3.84624211 51.5566122,3.64225155 50.3110316,3.64225155 L47.6577534,3.64225155 C46.502797,3.64225155 45.7314836,3.86664117 45.3438129,4.30420093 C44.9581562,4.74278065 44.7618035,5.36903168 44.7618035,6.17683432 L44.7618035,9.81806591 C44.7618035,10.6330082 44.9581562,11.2551794 45.3438129,11.7008988 C45.7314836,12.1374386 46.502797,12.3628482 47.6577534,12.3628482 L50.3110316,12.3628482 C51.5566122,12.3628482 52.3601477,12.1588577 52.7186171,11.7569962 C53.0770866,11.3469752 53.261356,10.703385 53.261356,9.81806591 L58,9.81806591 L58,11.3898132 C58,12.886084 57.6123294,14.0202716 56.8329604,14.8127749" id="Fill-14"></path>
                    <polyline id="Fill-15" points="64.7356759 16 60.0231647 16 60 11.3898132 60 4.60406706 60.0231647 0 64.7356759 0 64.7356759 6.11971696 73.2361235 6.11971696 73.2361235 0 78 0 78 16 73.2361235 16 73.2361235 9.76502837 64.7356759 9.76502837 64.7356759 16"></polyline>
                    <path d="M86.0855848,9.76502837 L84.7353583,9.76502837 C84.7534821,10.6115892 84.9548582,11.2551794 85.3475415,11.7008988 C85.7331767,12.1374386 86.5014264,12.3628482 87.6603457,12.3628482 L98,12.3628482 L98,16 L85.5781171,16 C83.4827991,16 82.0258433,15.6195576 81.2193321,14.854593 C80.4057728,14.0916683 80,12.9350418 80,11.3898132 L80,4.60406706 C80,3.06087843 80.4057728,1.91241155 81.2193321,1.14540702 C82.0258433,0.38248231 83.4827991,0 85.5781171,0 L98,0 L98,3.64225155 L87.6603457,3.64225155 C86.5014264,3.64225155 85.7331767,3.86664117 85.3475415,4.30420093 C84.9548582,4.74278065 84.7534821,5.34455281 84.7353583,6.11971696 L98,6.11971696 L98,9.76502837 L86.0855848,9.76502837" id="Fill-16"></path>
                    <polyline id="Fill-17" points="134.502465 3.64225155 128 3.64225155 128 0 146 0 146 3.64225155 139.219247 3.64225155 139.219247 16 134.502465 16 134.502465 3.64225155"></polyline>
                    <path d="M123.74259,2.91612083 L116.421295,2.91612083 L116.421295,0 L111.748921,0 L111.748921,2.91612083 L104.258417,2.91612083 C104.258417,2.91612083 100,3.04534181 100,7.92419714 C100,12.8091574 104.373237,12.8386645 104.373237,12.8386645 L111.748921,12.8386645 L111.748921,16 L116.421295,16 L116.421295,12.8386645 L123.624748,12.8386645 C123.624748,12.8386645 128,12.8091574 128,7.92419714 C128,3.04534181 123.74259,2.91612083 123.74259,2.91612083 M121.234676,9.66308426 L116.421295,9.66308426 L116.421295,6.28807631 L121.19741,6.28807631 C121.19741,6.28807631 122.840144,6.07236884 122.840144,8.06562798 C122.840144,9.72515103 121.234676,9.66308426 121.234676,9.66308426 M105.306906,8.06562798 C105.306906,6.07236884 106.950647,6.28807631 106.950647,6.28807631 L111.733813,6.28807631 L111.733813,9.66308426 L106.919424,9.66308426 C106.919424,9.66308426 105.306906,9.72515103 105.306906,8.06562798" id="Fill-18"></path>
                    <path d="M16.8316532,1.18416523 C16.0554435,0.391661886 14.608871,0 12.4949597,0 L0,0 L0,16 L4.71270161,16 L4.71975806,10.4800153 L12.4949597,10.4800153 C14.608871,10.4800153 16.0554435,10.0893734 16.8316532,9.30094983 C17.6108871,8.50538663 18,7.36405941 18,5.87594824 L18,4.60406706 C18,3.11799579 17.6108871,1.97972844 16.8316532,1.18416523 M11.7056452,6.84286352 L4.71975806,6.84286352 L4.71975806,3.64225155 L11.7056452,3.64225155 C12.578629,3.64225155 13.2852823,4.35621852 13.2852823,5.24255753 C13.2852823,6.12685663 12.578629,6.84286352 11.7056452,6.84286352" id="Fill-19"></path>
                    <path d="M166,11.393893 L166,10.1220119 C166,8.63492063 165.609857,7.49563333 164.834612,6.69905017 C164.05231,5.90858673 162.609689,5.5179448 160.494651,5.5179448 L152.716998,5.5179448 L152.71599,0 L148,0 L148,16 L160.494651,16 C162.609689,16 164.05231,15.6073182 164.834612,14.8168547 C165.609857,14.0202716 166,12.8830242 166,11.393893 M161.287034,10.7554026 C161.287034,11.6407216 160.578325,12.3577485 159.705293,12.3577485 L152.716998,12.3577485 L152.716998,9.15509658 L159.705293,9.15509658 C160.578325,9.15509658 161.287034,9.87212341 161.287034,10.7554026" id="Fill-20"></path>
                </g>
            </g>
        </g>
    </g>
</svg>